<svg aria-hidden="true" style="position: absolute; width: 0; height: 0; overflow: hidden;" version="1.1" xmlns="http://www.w3.org/2000/svg" xmlns:xlink="http://www.w3.org/1999/xlink">
<defs>
<symbol id="figma" viewBox="0 0 32 32">
<path d="M21.136 11.975h-6.117v-11.975h6.117c3.301 0 5.987 2.685 5.987 5.987s-2.685 5.988-5.987 5.988zM16.98 10.013h4.156c2.22 0 4.025-1.807 4.025-4.025s-1.807-4.025-4.025-4.025h-4.156v8.051zM16.98 11.975h-6.116c-3.301 0-5.987-2.685-5.987-5.987s2.685-5.988 5.987-5.988h6.117v11.975zM10.864 1.961c-2.22 0-4.025 1.807-4.025 4.025s1.805 4.027 4.025 4.027h4.156v-8.052h-4.156zM16.98 21.987h-6.116c-3.301 0-5.987-2.685-5.987-5.987s2.685-5.987 5.987-5.987h6.117v11.973zM10.864 11.975c-2.22 0-4.025 1.807-4.025 4.025s1.807 4.025 4.025 4.025h4.156v-8.051h-4.156zM10.896 32c-3.319 0-6.020-2.685-6.020-5.987s2.685-5.987 5.987-5.987h6.117v5.921c0 3.337-2.729 6.052-6.084 6.052zM10.864 21.987c-2.222 0.003-4.022 1.803-4.025 4.025v0c0 2.22 1.82 4.025 4.059 4.025 2.273 0 4.124-1.835 4.124-4.091v-3.96h-4.157zM21.136 21.987h-0.131c-3.301 0-5.987-2.685-5.987-5.987s2.685-5.987 5.987-5.987h0.131c3.301 0 5.987 2.685 5.987 5.987s-2.685 5.987-5.987 5.987zM21.007 11.975c-2.22 0-4.025 1.807-4.025 4.025s1.807 4.025 4.025 4.025h0.131c2.22 0 4.025-1.807 4.025-4.025s-1.807-4.025-4.025-4.025h-0.131z"></path>
</symbol>
<symbol id="trello" viewBox="0 0 32 32">
<path d="M28.004 0h0.053c1.085 0 2.067 0.449 2.767 1.173l0.001 0.001c0.724 0.701 1.173 1.681 1.173 2.768v24.116c0 1.085-0.449 2.067-1.173 2.767l-0.001 0.001c-0.701 0.724-1.681 1.173-2.768 1.173-0.019 0-0.037 0-0.057 0h-24c-0.017 0-0.039 0-0.059 0-1.085 0-2.067-0.449-2.767-1.173l-0.001-0.001c-0.724-0.701-1.173-1.681-1.173-2.768 0-0.019 0-0.037 0-0.057v0.003-24.003c0-0.016 0-0.035 0-0.053 0-1.085 0.449-2.067 1.173-2.767l0.001-0.001c0.701-0.724 1.681-1.173 2.768-1.173h0.055zM13.931 24.216v-18.149c0-0.005 0-0.012 0-0.017 0-0.527-0.219-1.001-0.571-1.339-0.337-0.348-0.809-0.564-1.331-0.564-0.009 0-0.019 0-0.027 0h-5.928c-0.005 0-0.012 0-0.017 0-0.527 0-1.001 0.219-1.339 0.571-0.352 0.339-0.572 0.813-0.572 1.339v18.159c-0.001 0.020-0.001 0.043-0.001 0.067 0 0.523 0.22 0.993 0.572 1.325l0.001 0.001c0.344 0.331 0.812 0.533 1.328 0.533h5.987c0.516 0 0.984-0.204 1.329-0.535 0.353-0.333 0.573-0.804 0.573-1.327 0-0.024 0-0.047-0.001-0.069v0.004zM27.861 16.216v-10.148c0-0.005 0-0.012 0-0.017 0-0.527-0.219-1.001-0.571-1.339-0.339-0.353-0.813-0.572-1.339-0.572-0.007 0-0.012 0-0.019 0h-5.928c-0.005 0-0.012 0-0.017 0-0.527 0-1.001 0.219-1.339 0.571-0.353 0.339-0.572 0.813-0.572 1.339v10.161c-0.001 0.020-0.001 0.043-0.001 0.067 0 0.523 0.22 0.993 0.572 1.325l0.001 0.001c0.344 0.331 0.812 0.533 1.328 0.533h5.987c0.516 0 0.984-0.204 1.329-0.535 0.353-0.333 0.573-0.804 0.573-1.327 0-0.021 0-0.043-0.001-0.064v0.003z"></path>
</symbol>
<symbol id="postman" viewBox="0 0 32 32">
<path d="M18.036 0.132c-8.763-1.124-16.78 5.068-17.904 13.832-1.124 8.763 5.067 16.779 13.831 17.904 8.764 1.124 16.783-5.068 17.904-13.832 1.125-8.763-5.065-16.779-13.831-17.904zM21.331 10.112c-0.309 0.004-0.588 0.131-0.791 0.333v0l-5.937 5.937-1.267-1.267c5.852-5.835 6.907-5.891 7.995-5.004zM14.847 16.593l5.92-5.92c0.151-0.158 0.363-0.256 0.598-0.256 0.457 0 0.827 0.37 0.827 0.827 0 0.254-0.114 0.481-0.294 0.633l-0.001 0.001-6.265 5.5-0.784-0.784zM15.287 17.519l-1.467 0.317c-0.005 0.001-0.011 0.002-0.018 0.002-0.031 0-0.058-0.018-0.072-0.044l-0-0c-0.007-0.012-0.011-0.025-0.011-0.040 0-0.022 0.009-0.043 0.024-0.057v0l0.86-0.86 0.683 0.683zM11.549 16.907l1.563-1.563 1.172 1.171-2.639 0.568c-0.007 0.002-0.016 0.003-0.025 0.003-0.039 0-0.072-0.022-0.088-0.055l-0-0.001c-0.010-0.015-0.015-0.033-0.015-0.052 0-0.029 0.013-0.054 0.032-0.072l0-0zM6.688 24.984c-0.052-0.005-0.092-0.048-0.092-0.101 0-0.003 0-0.007 0-0.010l-0 0c0.003-0.024 0.013-0.045 0.029-0.061v0h0.003l1.261-1.261 1.629 1.629-2.831-0.196zM9.921 23.309c-0.098 0.052-0.164 0.153-0.164 0.27 0 0.025 0.003 0.050 0.009 0.073l-0-0.002 0.271 1.153c0.003 0.012 0.005 0.026 0.005 0.040 0 0.092-0.075 0.167-0.167 0.167-0.047 0-0.089-0.019-0.119-0.050l-0-0h-0.004l-1.637-1.639 5.016-5.011 2.427-0.524 1.165 1.165c-1.673 1.469-3.961 2.935-6.8 4.357zM16.96 18.739h-0.003l-1.119-1.119 6.265-5.5c0.058-0.052 0.11-0.107 0.157-0.167l0.002-0.003c-0.197 1.793-2.705 4.327-5.303 6.788zM21.836 10.125l-0.004-0.003c-0.437-0.439-0.707-1.045-0.707-1.714 0-1.342 1.088-2.429 2.429-2.429 0.594 0 1.138 0.213 1.561 0.567l-0.004-0.003-2.147 2.151c-0.029 0.029-0.047 0.069-0.047 0.113s0.018 0.084 0.047 0.113v0l1.663 1.663c-0.314 0.159-0.685 0.253-1.077 0.253-0.669 0-1.275-0.271-1.713-0.71v0zM25.273 10.125c-0.107 0.106-0.226 0.202-0.353 0.285l-0.009 0.005h-0.001l-1.609-1.609 2.044-2.044c0.881 0.96 0.849 2.443-0.072 3.363zM25.14 8.067c-0.048 0.035-0.079 0.091-0.079 0.154 0 0.020 0.003 0.039 0.008 0.056l-0-0.001c0.036 0.072 0.057 0.156 0.057 0.246 0 0.135-0.048 0.259-0.129 0.355l0.001-0.001c-0.025 0.032-0.040 0.072-0.040 0.116 0 0.059 0.028 0.112 0.071 0.146l0 0c0.031 0.024 0.069 0.039 0.112 0.040h0c0.057-0.001 0.107-0.026 0.141-0.066l0-0c0.133-0.159 0.213-0.365 0.213-0.589 0-0.15-0.036-0.292-0.1-0.417l0.002 0.005c-0.034-0.048-0.089-0.079-0.151-0.079-0.040 0-0.078 0.013-0.108 0.035l0.001-0z"></path>
</symbol>
<symbol id="vs" viewBox="0 0 32 32">
<path d="M21.002 3.117c0-0.879-0.984-0.879-1.421-0.769 0.612-0.483 1.33-0.366 1.585-0.22l5.913 2.9c0.563 0.276 0.921 0.851 0.921 1.481v19.075c0 0.638-0.367 1.219-0.942 1.491l-5.564 2.631c-0.383 0.165-1.214 0.571-1.914-0 0.875 0.165 1.349-0.458 1.422-0.879v-25.71z"></path>
<path d="M19.651 2.332c0.464-0.092 1.351-0.049 1.351 0.785v6.566l-17.928 13.563c-0.313 0.237-0.754 0.198-1.021-0.091l-1.848-1.999c-0.289-0.313-0.269-0.803 0.045-1.091l19.331-17.716 0.071-0.016z"></path>
<path d="M21.002 22.371l-17.928-13.563c-0.313-0.237-0.754-0.198-1.021 0.091l-1.848 1.999c-0.289 0.313-0.269 0.803 0.045 1.092l19.331 17.715c0.875 0.165 1.349-0.458 1.422-0.879v-6.456z"></path>
</symbol>
<symbol id="express" viewBox="0 0 32 32">
<path d="M3.692 16.267c0.040 2.065 0.288 3.982 0.745 5.75 0.456 1.767 1.16 3.307 2.115 4.618 0.953 1.31 2.185 2.343 3.694 3.098s3.357 1.132 5.54 1.132c3.22 0 5.89-0.844 8.016-2.532 2.125-1.69 3.446-4.22 3.962-7.597h1.192c-0.437 3.575-1.847 6.345-4.23 8.312-2.384 1.966-5.324 2.95-8.82 2.95-2.383 0.040-4.42-0.338-6.107-1.133-1.69-0.794-3.070-1.917-4.142-3.367s-1.867-3.158-2.383-5.124-0.774-4.080-0.774-6.346c0-2.542 0.377-4.806 1.132-6.792s1.748-3.666 2.98-5.036c1.228-1.37 2.658-2.41 4.288-3.126s3.298-1.074 5.006-1.074c2.383 0 4.44 0.457 6.167 1.37 1.728 0.914 3.138 2.126 4.23 3.635 1.093 1.51 1.887 3.238 2.384 5.184 0.496 1.945 0.705 3.97 0.625 6.077h-25.619zM28.122 15.075c0-1.867-0.26-3.645-0.775-5.333-0.516-1.688-1.28-3.168-2.294-4.44-1.013-1.27-2.274-2.273-3.784-3.008s-3.258-1.102-5.244-1.102c-1.67 0-3.228 0.317-4.678 0.953s-2.72 1.56-3.813 2.77c-1.092 1.212-1.976 2.672-2.652 4.38-0.675 1.708-1.072 3.635-1.19 5.78h24.43z"></path>
</symbol>
<symbol id="swagger" viewBox="0 0 32 32">
<path d="M16 0c-8.823 0-16 7.177-16 16s7.177 16 16 16c8.823 0 16-7.177 16-16s-7.177-16-16-16zM16 1.527c7.995 0 14.473 6.479 14.473 14.473s-6.479 14.473-14.473 14.473c-7.995 0-14.473-6.479-14.473-14.473s6.479-14.473 14.473-14.473zM11.161 7.823c-0.188-0.005-0.375 0-0.568 0.005-1.307 0.079-2.093 0.693-2.312 1.964-0.151 0.891-0.125 1.796-0.188 2.692-0.020 0.464-0.067 0.928-0.156 1.38-0.177 0.813-0.525 1.068-1.353 1.109-0.111 0.011-0.22 0.032-0.324 0.057v1.948c1.5 0.073 1.704 0.605 1.823 2.172 0.048 0.573-0.015 1.147 0.021 1.719 0.027 0.543 0.099 1.079 0.208 1.6 0.344 1.432 1.745 1.911 3.433 1.624v-1.713c-0.272 0-0.511 0.005-0.74 0-0.579-0.016-0.792-0.161-0.844-0.713-0.079-0.713-0.057-1.437-0.099-2.156-0.089-1.339-0.235-2.651-1.541-3.5 0.672-0.495 1.161-1.084 1.312-1.865 0.109-0.547 0.177-1.099 0.219-1.651s-0.025-1.12 0.021-1.667c0.077-0.885 0.135-1.249 1.197-1.213 0.161 0 0.317-0.021 0.495-0.036v-1.745c-0.213 0-0.411-0.005-0.604-0.011zM21.287 7.839c-0.365-0.011-0.729 0.016-1.089 0.079v1.697c0.329 0 0.584 0 0.833 0.005 0.439 0.005 0.772 0.177 0.813 0.661 0.041 0.443 0.041 0.891 0.083 1.339 0.089 0.896 0.136 1.796 0.292 2.677 0.136 0.724 0.636 1.265 1.255 1.713-1.088 0.729-1.411 1.776-1.463 2.953-0.032 0.801-0.052 1.615-0.093 2.427-0.037 0.74-0.297 0.979-1.043 0.995-0.208 0.011-0.411 0.027-0.64 0.041v1.74c0.432 0 0.833 0.027 1.235 0 1.239-0.073 1.995-0.677 2.239-1.885 0.104-0.661 0.167-1.333 0.183-2.005 0.041-0.615 0.036-1.235 0.099-1.844 0.093-0.953 0.532-1.349 1.484-1.411 0.089-0.011 0.177-0.032 0.267-0.057v-1.953c-0.161-0.021-0.271-0.037-0.391-0.041-0.713-0.032-1.068-0.272-1.251-0.948-0.109-0.433-0.177-0.876-0.197-1.324-0.052-0.823-0.047-1.656-0.099-2.479-0.109-1.588-1.063-2.339-2.516-2.38zM12.099 14.875c-1.432 0-1.536 2.109-0.115 2.245h0.079c0.609 0.036 1.131-0.427 1.167-1.037v-0.061c0.011-0.62-0.484-1.136-1.104-1.147zM15.979 14.875c-0.593-0.020-1.093 0.448-1.115 1.043 0 0.036 0 0.067 0.005 0.104 0 0.672 0.459 1.099 1.147 1.099 0.677 0 1.104-0.443 1.104-1.136-0.005-0.672-0.459-1.115-1.141-1.109zM19.927 14.875c-0.624-0.011-1.145 0.485-1.167 1.115 0 0.625 0.505 1.131 1.136 1.131h0.011c0.567 0.099 1.135-0.448 1.172-1.104 0.031-0.609-0.521-1.141-1.152-1.141z"></path>
</symbol>
<symbol id="nodejs" viewBox="0 0 32 32">
<path d="M5.304 16.563c0-0.095-0.050-0.183-0.132-0.23l-2.192-1.261c-0.037-0.022-0.079-0.033-0.121-0.035-0.004 0-0.020 0-0.023 0-0.042 0.002-0.083 0.013-0.121 0.035l-2.191 1.261c-0.082 0.047-0.133 0.135-0.133 0.23l0.005 3.396c0 0.047 0.025 0.091 0.066 0.114 0.041 0.024 0.091 0.024 0.132 0l1.302-0.746c0.082-0.049 0.132-0.135 0.132-0.23v-1.587c0-0.094 0.050-0.182 0.132-0.229l0.555-0.319c0.041-0.024 0.086-0.035 0.133-0.035 0.045 0 0.091 0.012 0.132 0.035l0.554 0.319c0.082 0.047 0.132 0.135 0.132 0.229v1.587c0 0.095 0.051 0.181 0.133 0.23l1.302 0.746c0.041 0.024 0.092 0.024 0.132 0 0.040-0.023 0.066-0.067 0.066-0.114l0.004-3.396zM17.006 11.894c-0.041-0.023-0.091-0.022-0.131 0.002s-0.065 0.067-0.065 0.114v3.363c0 0.033-0.018 0.064-0.046 0.080s-0.064 0.017-0.093 0l-0.549-0.316c-0.082-0.047-0.183-0.047-0.265 0l-2.192 1.265c-0.082 0.047-0.133 0.135-0.133 0.229v2.531c0 0.095 0.050 0.182 0.132 0.229l2.192 1.266c0.082 0.047 0.183 0.047 0.265 0l2.193-1.266c0.082-0.048 0.132-0.135 0.132-0.229v-6.309c0-0.096-0.052-0.184-0.136-0.231l-1.305-0.728zM16.803 18.331c0 0.024-0.012 0.046-0.033 0.057l-0.753 0.434c-0.020 0.012-0.046 0.012-0.066 0l-0.753-0.434c-0.021-0.012-0.033-0.034-0.033-0.057v-0.869c0-0.024 0.013-0.046 0.033-0.057l0.753-0.435c0.020-0.012 0.046-0.012 0.066 0l0.753 0.435c0.020 0.012 0.033 0.034 0.033 0.057v0.869zM24.85 17.439c0.081-0.047 0.132-0.134 0.132-0.229v-0.613c0-0.095-0.050-0.181-0.132-0.229l-2.178-1.265c-0.082-0.048-0.183-0.048-0.265 0l-2.192 1.265c-0.082 0.047-0.132 0.135-0.132 0.229v2.53c0 0.095 0.051 0.183 0.134 0.23l2.178 1.241c0.080 0.046 0.179 0.046 0.26 0.001l1.317-0.732c0.041-0.023 0.067-0.067 0.068-0.115s-0.025-0.092-0.066-0.116l-2.206-1.266c-0.041-0.023-0.066-0.067-0.066-0.115v-0.793c0-0.047 0.025-0.091 0.066-0.115l0.687-0.395c0.041-0.023 0.091-0.023 0.132 0l0.687 0.395c0.041 0.024 0.066 0.067 0.066 0.115v0.624c0 0.047 0.025 0.091 0.066 0.115s0.092 0.023 0.133 0l1.312-0.763zM9.291 15.090c0.082-0.047 0.183-0.047 0.265 0l2.192 1.265c0.082 0.047 0.132 0.134 0.132 0.229v2.532c0 0.095-0.051 0.182-0.132 0.229l-2.192 1.266c-0.082 0.047-0.183 0.047-0.265 0l-2.192-1.266c-0.082-0.047-0.132-0.135-0.132-0.229v-2.532c0-0.095 0.050-0.182 0.132-0.229l2.192-1.265zM29.106 20.647c-0.075 0-0.151-0.020-0.217-0.058l-0.69-0.408c-0.103-0.058-0.052-0.078-0.019-0.090 0.137-0.048 0.165-0.059 0.312-0.142 0.015-0.009 0.036-0.005 0.052 0.004l0.53 0.315c0.019 0.011 0.046 0.011 0.064 0l2.067-1.193c0.019-0.011 0.031-0.033 0.031-0.056v-2.386c0-0.023-0.012-0.045-0.032-0.057l-2.066-1.192c-0.019-0.011-0.045-0.011-0.064 0l-2.066 1.192c-0.020 0.011-0.033 0.034-0.033 0.057v2.386c0 0.023 0.013 0.044 0.032 0.055l0.566 0.327c0.307 0.154 0.495-0.027 0.495-0.209v-2.355c0-0.033 0.027-0.059 0.060-0.059h0.262c0.033 0 0.060 0.026 0.060 0.059v2.355c0 0.41-0.223 0.645-0.612 0.645-0.119 0-0.214 0-0.476-0.129l-0.542-0.312c-0.134-0.077-0.217-0.222-0.217-0.377v-2.386c0-0.155 0.083-0.3 0.217-0.377l2.067-1.194c0.131-0.074 0.305-0.074 0.434 0l2.067 1.194c0.134 0.077 0.217 0.222 0.217 0.377v2.386c0 0.155-0.083 0.299-0.217 0.377l-2.067 1.193c-0.066 0.038-0.141 0.058-0.218 0.058zM29.745 19.004c-0.905 0-1.094-0.415-1.094-0.764 0-0.033 0.026-0.059 0.060-0.059h0.267c0.030 0 0.055 0.022 0.059 0.051 0.040 0.272 0.16 0.41 0.708 0.41 0.435 0 0.621-0.099 0.621-0.329 0-0.133-0.052-0.232-0.729-0.298-0.565-0.056-0.915-0.181-0.915-0.633 0-0.417 0.352-0.666 0.941-0.666 0.662 0 0.99 0.23 1.031 0.723 0.002 0.017-0.004 0.033-0.016 0.046s-0.027 0.019-0.044 0.019h-0.268c-0.028 0-0.052-0.020-0.058-0.047-0.064-0.286-0.221-0.378-0.645-0.378-0.475 0-0.531 0.166-0.531 0.29 0 0.151 0.065 0.194 0.707 0.279 0.635 0.084 0.937 0.203 0.937 0.649 0 0.45-0.375 0.708-1.030 0.708zM22.506 17.321c0.016-0.009 0.035-0.009 0.051 0l0.421 0.243c0.016 0.009 0.026 0.026 0.026 0.044v0.486c0 0.018-0.010 0.035-0.026 0.044l-0.421 0.243c-0.016 0.009-0.035 0.009-0.051 0l-0.42-0.243c-0.016-0.009-0.025-0.026-0.025-0.044v-0.486c0-0.018 0.010-0.035 0.025-0.044l0.42-0.243z"></path>
</symbol>
<symbol id="mongodb" viewBox="0 0 32 32">
<path d="M22.797 14.562c-0.067-0.774-0.209-1.546-0.407-2.297-0.625-2.369-1.666-4.637-3.134-6.603-0.4-0.536-0.832-1.048-1.294-1.532-0.476-0.499-1.004-0.957-1.336-1.578-0.21-0.393-0.41-0.791-0.614-1.187-0.003 0.124-0.011 0.248-0.011 0.371 0-0.124 0.009-0.248 0.011-0.372-0.038-0.095-0.076-0.191-0.13-0.327-0.022 0.075-0.036 0.101-0.036 0.129-0.017 0.645-0.383 1.083-0.838 1.492-0.512 0.46-0.989 0.959-1.481 1.441 0.017 0.022 0.036 0.044 0.055 0.066-0.019-0.022-0.038-0.043-0.055-0.066-1.463 1.924-2.752 3.981-3.511 6.29-0.221 0.672-0.395 1.359-0.517 2.056-0.259 1.481-0.379 2.92-0.296 4.42 0.046 0.829 0.191 1.645 0.407 2.448 0.785 2.917 2.379 5.336 4.558 7.392 0.405 0.382 0.842 0.729 1.265 1.093 0.001-0.004 0.002-0.007 0.003-0.011-0.001 0.004-0.002 0.007-0.003 0.011 0.062 0.214 0.125 0.428 0.187 0.642 0.058 0.332 0.116 0.664 0.174 0.996 0.028 0.346 0.055 0.693 0.083 1.039-0.001 0.211-0.010 0.423 0.003 0.633 0.003 0.054 0.074 0.104 0.113 0.156 0.001-0.002 0.002-0.004 0.004-0.006-0.001 0.002-0.002 0.004-0.004 0.006 0.118 0.041 0.235 0.083 0.353 0.124 0.106 0.041 0.212 0.083 0.367 0.143-0.023-0.346-0.043-0.635-0.063-0.924-0.001-0.303-0.002-0.607-0.003-0.91-0.006 0.007-0.014 0.014-0.021 0.021 0.007-0.007 0.014-0.014 0.021-0.021 0.042-0.462 0.085-0.924 0.127-1.386 0.031-0.101 0.061-0.201 0.092-0.302 0.088-0.156 0.175-0.311 0.263-0.467 0.325-0.262 0.674-0.499 0.971-0.79 0.536-0.527 1.071-1.060 1.55-1.637 0.622-0.748 1.158-1.565 1.588-2.441 1.223-2.491 1.789-5.269 1.564-8.039-0.002-0.024-0.004-0.049-0.006-0.074z"></path>
</symbol>
<symbol id="github" viewBox="0 0 32 32">
<path d="M16 5.343c-6.196 0-11.219 5.023-11.219 11.219 0 4.957 3.214 9.162 7.673 10.645 0.561 0.103 0.766-0.244 0.766-0.54 0-0.267-0.010-1.152-0.016-2.088-3.12 0.678-3.779-1.323-3.779-1.323-0.511-1.296-1.246-1.641-1.246-1.641-1.020-0.696 0.077-0.682 0.077-0.682 1.126 0.078 1.72 1.156 1.72 1.156 1.001 1.715 2.627 1.219 3.265 0.931 0.102-0.723 0.392-1.219 0.712-1.498-2.49-0.283-5.11-1.246-5.11-5.545 0-1.226 0.438-2.225 1.154-3.011-0.114-0.285-0.501-1.426 0.111-2.97 0 0 0.941-0.301 3.085 1.15 0.894-0.25 1.854-0.373 2.807-0.377 0.953 0.004 1.913 0.129 2.809 0.379 2.14-1.453 3.083-1.15 3.083-1.15 0.613 1.545 0.227 2.685 0.112 2.969 0.719 0.785 1.153 1.785 1.153 3.011 0 4.31-2.624 5.259-5.123 5.537 0.404 0.348 0.761 1.030 0.761 2.076 0 1.5-0.015 2.709-0.015 3.079 0 0.299 0.204 0.648 0.772 0.538 4.455-1.486 7.666-5.69 7.666-10.645 0-6.195-5.023-11.219-11.219-11.219z"></path>
</symbol>
<symbol id="docker" viewBox="0 0 32 32">
<path d="M15.75 15.464c0.108 0.009 0.102-0.081 0.103-0.152 0.002-0.25 0.001-0.501 0.001-0.751 0-0.266 0.001-0.533-0.001-0.8 0-0.064 0.001-0.141-0.090-0.141s-0.089 0.076-0.089 0.141c-0.001 0.517-0.001 1.033 0 1.551 0 0.063-0.009 0.145 0.078 0.152z"></path>
<path d="M19.014 15.468c0.101-0.008 0.092-0.097 0.092-0.168 0.001-0.25 0-0.502 0-0.752 0-0.259 0-0.518 0-0.776 0-0.075-0.004-0.157-0.105-0.156-0.099 0.001-0.079 0.086-0.079 0.146-0.002 0.518-0.002 1.035 0 1.553 0 0.066-0.026 0.165 0.092 0.155z"></path>
<path d="M17.106 15.469c0.087 0.004 0.104-0.062 0.104-0.132 0-0.534 0-1.066 0-1.6 0-0.074-0.030-0.131-0.113-0.122-0.079 0.008-0.069 0.077-0.070 0.132-0.001 0.266-0.001 0.534-0.001 0.8 0 0.259-0.001 0.518 0.001 0.776 0.001 0.059-0.022 0.142 0.078 0.146z"></path>
<path d="M16.436 15.468c0.088-0.002 0.095-0.073 0.095-0.14 0.001-0.525 0.001-1.050 0-1.576 0-0.069-0.011-0.136-0.1-0.136-0.101-0.001-0.083 0.081-0.083 0.141-0.002 0.259-0.001 0.518-0.001 0.776s-0.002 0.518 0.001 0.776c0.001 0.065-0.031 0.162 0.088 0.16z"></path>
<path d="M15.826 11.159c0-0.056-0.001-0.125-0.081-0.12s-0.070 0.076-0.070 0.131c-0.001 0.259-0.001 0.517-0.001 0.776s-0.002 0.517 0.001 0.776c0.001 0.059-0.019 0.146 0.080 0.144 0.079-0.002 0.071-0.076 0.071-0.13 0.001-0.525 0.001-1.050 0-1.576z"></path>
<path d="M16.76 15.468c0.103 0.007 0.109-0.074 0.109-0.151 0-0.518 0-1.034 0-1.552 0-0.076-0.007-0.157-0.109-0.151-0.097 0.007-0.072 0.091-0.073 0.151-0.003 0.259-0.001 0.518-0.001 0.776s-0.001 0.518 0.001 0.776c0.001 0.059-0.024 0.144 0.073 0.151z"></path>
<path d="M16.007 14.537c0 0.259-0.001 0.518 0.001 0.776 0.001 0.059-0.024 0.145 0.070 0.154 0.101 0.010 0.114-0.068 0.114-0.147 0-0.518 0-1.034 0-1.552 0-0.074-0.002-0.16-0.105-0.154-0.115 0.007-0.075 0.106-0.077 0.17-0.005 0.25-0.002 0.502-0.002 0.752z"></path>
<path d="M19.261 15.33c0 0.061-0.015 0.142 0.085 0.14 0.087-0.002 0.1-0.070 0.1-0.138 0.001-0.526 0.001-1.051 0-1.577 0-0.068-0.011-0.136-0.098-0.14-0.101-0.004-0.087 0.076-0.087 0.138-0.002 0.259-0.001 0.518-0.001 0.776 0 0.267-0.001 0.534 0.001 0.801z"></path>
<path d="M13.169 12.895c0.104 0.006 0.108-0.076 0.108-0.152 0-0.524 0.001-1.048-0.001-1.574 0-0.066-0.008-0.136-0.098-0.137-0.103-0.001-0.083 0.080-0.083 0.139-0.002 0.258-0.001 0.517-0.001 0.775 0 0.266-0.001 0.533 0.001 0.799 0.001 0.059-0.023 0.144 0.074 0.15z"></path>
<path d="M14.448 12.769c0 0.056-0.002 0.121 0.076 0.127 0.084 0.006 0.112-0.051 0.112-0.124 0.001-0.534 0.001-1.067 0-1.601 0-0.066-0.008-0.136-0.098-0.138-0.099-0.003-0.090 0.073-0.090 0.136-0.001 0.266-0.001 0.534-0.001 0.8s0 0.534 0 0.8z"></path>
<path d="M13.166 13.614c-0.094 0.008-0.071 0.093-0.072 0.153-0.002 0.259-0.001 0.518-0.001 0.776s-0.001 0.518 0.001 0.776c0.001 0.059-0.022 0.145 0.076 0.149 0.102 0.004 0.108-0.078 0.108-0.153 0-0.518 0-1.035 0-1.553 0-0.078-0.013-0.157-0.113-0.149z"></path>
<path d="M13.51 12.895c0.104 0.006 0.107-0.076 0.108-0.152 0-0.524 0.001-1.048-0.001-1.574 0-0.066-0.008-0.136-0.098-0.137-0.103-0.001-0.083 0.080-0.083 0.139-0.002 0.258-0.001 0.517-0.001 0.775 0 0.266-0.002 0.533 0.001 0.799 0.001 0.059-0.024 0.144 0.074 0.15z"></path>
<path d="M14.114 12.767c0 0.055-0.008 0.123 0.072 0.129 0.085 0.006 0.11-0.053 0.11-0.126 0-0.533 0.001-1.065 0-1.597 0-0.065-0.006-0.136-0.096-0.139-0.103-0.004-0.086 0.076-0.086 0.136-0.002 0.258-0.001 0.517-0.001 0.775 0 0.274-0.001 0.549 0 0.823z"></path>
<path d="M13.852 12.895c0.087 0.004 0.104-0.062 0.104-0.132 0-0.533 0.001-1.065-0.001-1.597 0-0.067-0.011-0.136-0.102-0.134-0.103 0.002-0.079 0.085-0.079 0.143-0.003 0.258-0.001 0.517-0.001 0.775 0 0.266-0.001 0.533 0.001 0.799 0.001 0.059-0.023 0.142 0.078 0.146z"></path>
<path d="M16.348 10.168c0 0.059-0.024 0.145 0.071 0.153 0.102 0.009 0.112-0.070 0.112-0.148 0-0.258 0-0.517 0-0.775s0.001-0.517-0.001-0.775c-0.001-0.071 0.010-0.16-0.094-0.165-0.12-0.005-0.087 0.095-0.087 0.158-0.003 0.517-0.002 1.032-0.001 1.549z"></path>
<path d="M17.518 11.176c0-0.059 0.016-0.145-0.085-0.137-0.081 0.006-0.064 0.081-0.064 0.133-0.002 0.249-0.001 0.499-0.001 0.748 0 0.265-0.002 0.531 0.001 0.796 0.001 0.058-0.024 0.148 0.072 0.151s0.077-0.087 0.077-0.146c0.002-0.515 0.002-1.030 0-1.545z"></path>
<path d="M18.343 15.464c0.090-0.004 0.089-0.078 0.089-0.143 0.001-0.259 0-0.518 0-0.776s0.001-0.518 0-0.776c0-0.064 0.005-0.14-0.085-0.148s-0.102 0.062-0.102 0.131c-0.001 0.526-0.001 1.052 0 1.578 0 0.067 0.006 0.139 0.097 0.136z"></path>
<path d="M17.111 11.033c-0.102 0-0.082 0.081-0.083 0.141-0.002 0.258-0.001 0.517-0.001 0.775 0 0.266-0.001 0.533 0.001 0.799 0.001 0.059-0.022 0.142 0.075 0.149 0.085 0.006 0.107-0.058 0.107-0.129 0.001-0.533 0.001-1.065 0-1.597 0-0.067-0.012-0.136-0.101-0.136z"></path>
<path d="M16.091 11.033c-0.102 0-0.082 0.081-0.083 0.141-0.002 0.258-0.001 0.517-0.001 0.775 0 0.266-0.001 0.533 0.001 0.799 0.001 0.059-0.022 0.142 0.076 0.149 0.085 0.006 0.107-0.058 0.107-0.129 0.001-0.533 0.001-1.065 0-1.597 0-0.067-0.012-0.136-0.101-0.136z"></path>
<path d="M17.368 9.381c0 0.258-0.002 0.517 0.001 0.775 0.001 0.058-0.024 0.145 0.080 0.141 0.080-0.003 0.070-0.076 0.070-0.13 0.001-0.524 0.001-1.049 0-1.574 0-0.054 0.010-0.126-0.071-0.129-0.104-0.004-0.078 0.084-0.079 0.142-0.003 0.258-0.002 0.517-0.002 0.775z"></path>
<path d="M16.436 11.034c-0.119-0.005-0.086 0.095-0.087 0.159-0.004 0.25-0.002 0.5-0.002 0.75 0 0.266-0.001 0.533 0.001 0.799 0.001 0.060-0.023 0.145 0.072 0.153 0.1 0.008 0.113-0.071 0.113-0.148 0-0.517 0.001-1.032 0-1.549 0-0.072 0.006-0.16-0.097-0.164z"></path>
<path d="M16.776 11.034c-0.119-0.005-0.086 0.095-0.087 0.159-0.004 0.25-0.002 0.5-0.002 0.75 0 0.266-0.001 0.533 0.001 0.799 0.001 0.060-0.023 0.145 0.072 0.153 0.1 0.008 0.113-0.071 0.113-0.148 0-0.517 0.001-1.032 0-1.549 0-0.072 0.006-0.16-0.097-0.164z"></path>
<path d="M17.369 15.316c0 0.053-0.013 0.127 0.069 0.128 0.1 0.002 0.080-0.084 0.080-0.142 0.003-0.249 0.001-0.499 0.001-0.748 0-0.258 0.002-0.515-0.001-0.773-0.001-0.059 0.018-0.144-0.083-0.14-0.082 0.004-0.067 0.078-0.067 0.13-0.002 0.515-0.002 1.030 0 1.545z"></path>
<path d="M15.753 10.295c0.093-0.002 0.073-0.090 0.074-0.15 0.003-0.249 0.001-0.499 0.001-0.749 0-0.265 0.001-0.532-0.001-0.797 0-0.053 0.012-0.126-0.068-0.133-0.102-0.008-0.085 0.077-0.085 0.136-0.002 0.515-0.002 1.031 0 1.545 0 0.059-0.019 0.148 0.077 0.146z"></path>
<path d="M16.008 10.166c0 0.066-0.027 0.165 0.092 0.154 0.103-0.008 0.089-0.098 0.089-0.168 0.002-0.25 0.001-0.5 0-0.75 0-0.258 0.001-0.517-0.001-0.775-0.001-0.070 0.011-0.16-0.092-0.166-0.12-0.008-0.088 0.092-0.088 0.156-0.003 0.517-0.002 1.032 0 1.549z"></path>
<path d="M18.584 15.291c0 0.070-0.041 0.184 0.094 0.175 0.118-0.008 0.092-0.112 0.093-0.188 0.003-0.242 0.001-0.483 0.001-0.725 0-0.249 0.001-0.499-0.001-0.749-0.001-0.076 0.024-0.181-0.095-0.187-0.136-0.008-0.092 0.107-0.092 0.176-0.004 0.499-0.004 0.999 0 1.497z"></path>
<path d="M16.687 9.383c0 0.266-0.001 0.533 0.001 0.799 0 0.060-0.017 0.141 0.084 0.14 0.088-0.001 0.098-0.070 0.098-0.137 0.001-0.524 0.001-1.048 0-1.573 0-0.073-0.003-0.157-0.107-0.152-0.101 0.005-0.072 0.091-0.073 0.149-0.004 0.258-0.002 0.517-0.002 0.775z"></path>
<path d="M17.027 9.391c0 0.258-0.002 0.517 0.001 0.775 0.001 0.066-0.028 0.162 0.091 0.155 0.088-0.005 0.090-0.078 0.090-0.144 0-0.524 0.001-1.048-0.001-1.573 0-0.065-0.003-0.139-0.091-0.143-0.12-0.006-0.088 0.092-0.089 0.156-0.004 0.258-0.002 0.517-0.002 0.775z"></path>
<path d="M13.509 13.614c-0.096 0.006-0.073 0.091-0.073 0.151-0.002 0.259-0.001 0.518-0.001 0.776s-0.001 0.518 0.001 0.776c0.001 0.060-0.022 0.145 0.073 0.152 0.101 0.007 0.111-0.074 0.111-0.151 0-0.518 0-1.035 0-1.553 0-0.077-0.009-0.157-0.111-0.152z"></path>
<path d="M14.79 12.717c0 0.058-0.023 0.149 0.072 0.152 0.116 0.004 0.083-0.099 0.084-0.163 0.004-0.25 0.002-0.502 0.002-0.752s0.003-0.502-0.002-0.752c-0.001-0.064 0.035-0.167-0.083-0.164-0.095 0.002-0.072 0.091-0.072 0.151-0.002 0.509-0.002 1.019 0 1.528z"></path>
<path d="M10.595 15.468c0.103 0.007 0.109-0.074 0.109-0.151 0-0.518 0-1.034 0-1.552 0-0.076-0.007-0.157-0.109-0.151-0.097 0.007-0.072 0.091-0.073 0.151-0.002 0.259-0.001 0.518-0.001 0.776s-0.001 0.518 0.001 0.776c0.001 0.059-0.024 0.144 0.073 0.151z"></path>
<path d="M9.644 15.32c0 0.055-0.004 0.125 0.079 0.121 0.081-0.005 0.069-0.076 0.070-0.129 0.002-0.258 0.001-0.516 0.001-0.774 0-0.249 0.002-0.5-0.001-0.749-0.001-0.057 0.024-0.146-0.077-0.144-0.079 0.001-0.071 0.074-0.072 0.128-0.001 0.516-0.001 1.032 0 1.547z"></path>
<path d="M10.947 15.468c0.104-0.004 0.097-0.089 0.097-0.162 0.001-0.515 0-1.030 0-1.544 0-0.078-0.013-0.154-0.114-0.146-0.092 0.008-0.075 0.089-0.076 0.151-0.002 0.258-0.001 0.515-0.001 0.773s-0.002 0.515 0.001 0.773c0.001 0.067-0.023 0.162 0.091 0.157z"></path>
<path d="M11.197 15.303c0.001 0.059-0.018 0.144 0.083 0.141 0.081-0.002 0.072-0.073 0.073-0.127 0.001-0.516 0.001-1.032 0-1.547 0-0.054 0.009-0.125-0.071-0.129-0.101-0.005-0.084 0.079-0.085 0.138-0.002 0.249-0.001 0.5-0.001 0.75 0 0.258-0.002 0.516 0.001 0.774z"></path>
<path d="M9.304 15.321c0 0.056-0.001 0.124 0.082 0.119 0.080-0.005 0.072-0.075 0.072-0.129 0.002-0.25 0.001-0.501 0.001-0.75 0-0.258 0.002-0.517-0.001-0.775-0.001-0.059 0.018-0.145-0.082-0.142-0.080 0.002-0.072 0.074-0.072 0.128-0.001 0.517-0.001 1.033 0 1.55z"></path>
<path d="M11.877 15.304c0 0.060-0.016 0.147 0.084 0.139 0.094-0.008 0.071-0.093 0.072-0.152 0.003-0.249 0.001-0.5 0.001-0.749s0.002-0.5-0.001-0.75c-0.001-0.059 0.023-0.145-0.072-0.152-0.1-0.007-0.083 0.080-0.083 0.14-0.002 0.508-0.002 1.016 0 1.524z"></path>
<path d="M11.536 14.538c0 0.258-0.001 0.516 0.001 0.774 0 0.053-0.011 0.125 0.069 0.131 0.101 0.008 0.087-0.076 0.087-0.136 0.002-0.508 0.002-1.016 0-1.524 0-0.059 0.019-0.147-0.080-0.143-0.096 0.003-0.074 0.089-0.075 0.149-0.003 0.249-0.001 0.5-0.001 0.75z"></path>
<path d="M26.118 16.497c0.136-0.419 0.365-0.52 0.799-0.53 1.458-0.031 2.634-0.585 3.289-1.982 0.060-0.129 0.055-0.177-0.073-0.256-0.935-0.574-1.935-0.68-2.988-0.451-0.091 0.020-0.196 0.1-0.229-0.087-0.155-0.872-0.626-1.565-1.257-2.161-0.21-0.198-0.416-0.402-0.677-0.536-0.234 0.225-0.451 0.469-0.575 0.771-0.497 1.205-0.496 2.391 0.184 3.533 0.079 0.133 0.042 0.174-0.070 0.23-0.297 0.147-0.605 0.265-0.922 0.366-0.865 0.275-1.757 0.229-2.646 0.237-0.18 0.002-0.233-0.043-0.231-0.228 0.011-0.72-0.007-1.441 0.011-2.16 0.006-0.226-0.068-0.264-0.272-0.261-0.655 0.012-1.311 0.007-1.966 0.004-0.393-0.002-0.34 0.044-0.341-0.328-0.002-1.538-0.003-3.075 0.002-4.612 0.001-0.159-0.026-0.226-0.208-0.224-0.898 0.009-1.796 0.009-2.695 0-0.177-0.002-0.214 0.057-0.212 0.221 0.008 0.704-0.006 1.408 0.009 2.112 0.005 0.217-0.056 0.265-0.267 0.264-1.554-0.009-3.107-0.002-4.661-0.009-0.196-0.001-0.239 0.057-0.236 0.243 0.010 0.712 0 1.424 0.008 2.136 0.002 0.158-0.041 0.204-0.201 0.202-0.712-0.008-1.424 0.002-2.136-0.008-0.183-0.003-0.248 0.036-0.245 0.235 0.013 0.736 0.001 1.473 0.008 2.209 0.002 0.158-0.040 0.206-0.201 0.203-0.607-0.009-1.213-0.002-1.82-0.006-0.12-0.001-0.196 0.010-0.207 0.159-0.040 0.533-0.077 1.064-0.029 1.598 0.025 0.281 0.027 0.281-0.26 0.224-0.564-0.113-1.076-0.331-1.495-0.759-0.035 0.413-0.148 0.581-0.514 0.764-0.376 0.188-0.791 0.265-1.186 0.402 1.1 0 2.2 0.006 3.301-0.005 0.187-0.002 0.241 0.060 0.273 0.233 0.21 1.151 0.688 2.182 1.44 3.080 1.483 1.774 3.442 2.599 5.692 2.799 1.745 0.155 3.473-0.009 5.172-0.431 3.305-0.822 5.93-2.607 7.752-5.517 0.080-0.128 0.167-0.164 0.312-0.163 1.44 0.006 2.881 0.004 4.321 0.004 0.082 0 0.164 0 0.246 0-0.272-0.102-0.55-0.155-0.812-0.25-0.435-0.158-0.903-0.301-0.888-0.91-0.145 0.117-0.264 0.229-0.398 0.317-0.712 0.464-1.507 0.539-2.328 0.499-0.146-0.008-0.108-0.067-0.067-0.15 0.169-0.339 0.377-0.666 0.494-1.023zM18.052 13.567c-0.001-0.133 0.056-0.163 0.174-0.163 0.639 0.004 1.278 0.004 1.917 0 0.123-0.001 0.175 0.045 0.175 0.17-0.003 0.648-0.003 1.294 0 1.942 0 0.131-0.065 0.164-0.183 0.162-0.315-0.004-0.632-0.002-0.947-0.002s-0.632-0.004-0.947 0.002c-0.125 0.002-0.193-0.022-0.192-0.17 0.007-0.648 0.006-1.294 0.001-1.942zM17.746 12.915c0.001 0.136-0.054 0.184-0.187 0.184-0.639-0.004-1.278-0.006-1.917 0.001-0.151 0.002-0.171-0.069-0.168-0.193 0.006-0.315 0.002-0.631 0.002-0.946s0.005-0.632-0.003-0.946c-0.003-0.134 0.036-0.185 0.177-0.184 0.631 0.006 1.262 0.006 1.893 0 0.142-0.001 0.205 0.040 0.204 0.191-0.005 0.631-0.005 1.262 0 1.893zM15.475 9.379c0-0.308 0.006-0.615-0.003-0.921-0.004-0.139 0.026-0.202 0.184-0.2 0.631 0.008 1.261 0.008 1.892 0.001 0.151-0.002 0.197 0.054 0.195 0.198-0.005 0.623-0.005 1.245 0 1.868 0.001 0.144-0.042 0.201-0.194 0.2-0.631-0.006-1.261-0.007-1.892 0.001-0.156 0.002-0.19-0.058-0.186-0.2 0.008-0.315 0.003-0.631 0.003-0.946zM15.472 13.602c-0.001-0.141 0.030-0.2 0.186-0.198 0.631 0.008 1.261 0.008 1.891 0.001 0.152-0.002 0.195 0.056 0.194 0.199-0.005 0.622-0.006 1.244 0 1.867 0.002 0.155-0.046 0.216-0.208 0.21-0.314-0.010-0.631-0.003-0.946-0.003-0.307 0-0.615-0.006-0.921 0.003-0.141 0.004-0.2-0.029-0.199-0.186 0.008-0.631 0.007-1.26 0.001-1.891zM13.086 10.831c0.621 0.008 1.243 0.008 1.864 0 0.149-0.002 0.198 0.045 0.193 0.193-0.009 0.314-0.003 0.63-0.003 0.944s-0.005 0.63 0.003 0.944c0.003 0.134-0.038 0.185-0.178 0.184-0.63-0.006-1.259-0.006-1.889 0-0.138 0.001-0.18-0.045-0.178-0.182 0.006-0.63 0.007-1.259 0-1.889-0.002-0.143 0.034-0.198 0.188-0.196zM15.141 14.565c0 0.315-0.004 0.631 0.002 0.946 0.003 0.125-0.042 0.169-0.168 0.168-0.639-0.005-1.277-0.004-1.916-0.001-0.113 0.001-0.158-0.036-0.157-0.153 0.004-0.655 0.004-1.31 0-1.965-0.001-0.114 0.039-0.157 0.154-0.156 0.639 0.004 1.277 0.006 1.916-0.001 0.149-0.002 0.174 0.065 0.171 0.19-0.006 0.324-0.002 0.647-0.002 0.97zM10.491 10.831c0.637 0.005 1.275 0.005 1.912 0 0.13-0.001 0.166 0.051 0.165 0.172-0.004 0.646-0.004 1.291 0 1.937 0.001 0.113-0.040 0.159-0.154 0.158-0.646-0.003-1.291-0.004-1.937 0.001-0.144 0.001-0.151-0.077-0.15-0.185 0.003-0.314 0.001-0.63 0.001-0.944 0-0.323 0.004-0.646-0.002-0.968-0.003-0.123 0.036-0.171 0.165-0.17zM10.522 13.404c0.315 0.008 0.631 0.003 0.947 0.003 0.308 0 0.615 0.006 0.922-0.003 0.14-0.004 0.18 0.048 0.179 0.183-0.006 0.639-0.006 1.278 0 1.917 0.001 0.144-0.057 0.175-0.187 0.174-0.623-0.005-1.246-0.007-1.869 0.001-0.152 0.002-0.191-0.051-0.189-0.196 0.007-0.631 0.008-1.262-0.001-1.893-0.002-0.157 0.056-0.191 0.198-0.187zM7.747 13.579c-0.001-0.144 0.057-0.176 0.187-0.175 0.623 0.005 1.245 0.007 1.868-0.001 0.153-0.002 0.19 0.054 0.189 0.197-0.007 0.631-0.008 1.261 0 1.892 0.002 0.155-0.056 0.192-0.198 0.188-0.307-0.008-0.615-0.003-0.921-0.003s-0.615-0.005-0.921 0.002c-0.136 0.003-0.205-0.024-0.203-0.184 0.008-0.639 0.007-1.278 0.001-1.916zM24.722 18.2c-0.565 0.841-1.205 1.62-1.96 2.296-0.92 0.824-1.949 1.484-3.077 1.991-1.192 0.536-2.439 0.874-3.73 1.067-0.63 0.094-1.264 0.134-1.898 0.175v0c-1.582 0.064-3.128-0.087-4.592-0.748-0.865-0.391-1.609-0.951-2.289-1.604-0.033-0.032-0.080-0.057-0.078-0.141 0.786 0.050 1.571 0.041 2.355-0.006 0.605-0.053 1.204-0.141 1.793-0.294v0 0c0.076-0.026 0.152-0.052 0.228-0.078 0.122-0.041 0.2-0.118 0.159-0.253-0.041-0.137-0.15-0.152-0.272-0.113-0.49 0.16-0.994 0.254-1.508 0.303-0.408 0.039-0.814 0.095-1.225 0.076-0.58 0.020-1.159 0.005-1.737-0.036-0.090-0.007-0.147-0.040-0.198-0.111-0.553-0.779-0.924-1.634-1.094-2.577-0.023-0.129 0.029-0.135 0.121-0.134 0.322 0.004 0.645 0.006 0.967 0.008 0.072-0.003 0.145-0.008 0.218-0.008 5.113 0 10.226 0 15.338 0 0.072 0 0.145 0.005 0.218 0.007 0.719-0.002 1.438-0.001 2.157-0.009 0.18-0.002 0.194 0.051 0.102 0.188zM25.191 17.424c-0.072 0.13-0.139 0.163-0.286 0.12-0.32-0.090-0.639-0.179-0.91-0.377-0.095-0.069-0.137-0.052-0.216 0.024-0.177 0.168-0.386 0.29-0.632 0.333-0.538 0.204-1.105 0.232-1.669 0.234-0.671 0.003-1.339-0.062-1.992-0.233-0.412-0.108-0.84-0.198-1.129-0.557-0.066-0.081-0.094-0.008-0.13 0.023-0.771 0.685-1.709 0.789-2.68 0.751-0.544-0.022-1.071-0.144-1.561-0.396-0.203-0.104-0.364-0.339-0.549-0.373-0.163-0.030-0.327 0.252-0.536 0.339-0.543 0.226-1.114 0.328-1.692 0.394-0.774 0.088-1.548 0.085-2.314-0.083-0.358-0.078-0.708-0.184-0.974-0.455-0.085-0.087-0.129-0.040-0.2 0.005-0.346 0.217-0.722 0.357-1.13 0.402-0.304 0.099-0.619 0.096-0.934 0.104-0.086 0.002-0.128-0.027-0.142-0.12-0.069-0.451-0.038-0.903-0.027-1.355 0.003-0.12 0.080-0.14 0.182-0.138 0.275 0.006 0.55 0.006 0.824 0.008 0.105-0.003 0.21-0.008 0.315-0.008 5.007 0 10.014 0.002 15.021-0.003 0.862-0.001 1.704-0.134 2.505-0.476 0.306-0.131 0.597-0.288 0.864-0.486 0.053-0.039 0.158-0.072 0.046-0.179-0.43-0.408-0.639-0.93-0.712-1.503-0.094-0.735-0.030-1.453 0.341-2.117 0.145-0.26 0.152-0.262 0.371-0.069 0.672 0.595 1.171 1.292 1.273 2.215 0.014 0.128 0.012 0.258 0.008 0.387-0.002 0.057 0 0.095 0.067 0.098 0.968-0.438 1.942-0.468 2.926-0.050 0.196 0.083 0.181 0.168 0.082 0.321-0.483 0.752-1.199 1.129-2.052 1.279-0.404 0.072-0.813 0.129-1.225 0.057-0.185-0.032-0.286 0.024-0.356 0.216-0.21 0.577-0.481 1.127-0.776 1.665z"></path>
<path d="M7.951 15.302c0.001 0.058-0.020 0.145 0.083 0.136 0.079-0.007 0.065-0.081 0.065-0.134 0.002-0.507 0.002-1.016 0-1.523 0-0.059 0.015-0.145-0.085-0.136-0.080 0.007-0.063 0.082-0.063 0.134-0.002 0.249-0.001 0.5-0.001 0.749 0 0.258-0.002 0.516 0.001 0.774z"></path>
<path d="M8.965 15.306c0 0.053-0.012 0.126 0.068 0.132 0.101 0.008 0.086-0.076 0.087-0.136 0.002-0.508 0.002-1.016 0-1.526 0-0.053 0.012-0.126-0.068-0.132-0.101-0.008-0.086 0.076-0.087 0.136-0.002 0.25-0.001 0.501-0.001 0.75 0 0.258-0.001 0.517 0.001 0.775z"></path>
<path d="M8.36 15.441c0.081 0.002 0.078-0.068 0.078-0.123 0.002-0.258 0.001-0.517 0.001-0.775s0.001-0.517-0.001-0.775c0-0.055 0.005-0.124-0.075-0.126s-0.078 0.068-0.078 0.123c-0.001 0.517-0.001 1.033 0 1.549 0 0.055-0.005 0.124 0.075 0.126z"></path>
<path d="M13.864 13.615c-0.118-0.006-0.088 0.094-0.088 0.159-0.003 0.509-0.003 1.019 0 1.529 0 0.064-0.034 0.164 0.083 0.165 0.103 0.001 0.102-0.086 0.102-0.159 0.001-0.25 0-0.502 0-0.752 0-0.259 0.001-0.518 0-0.776-0.001-0.072 0.006-0.16-0.096-0.165z"></path>
<path d="M8.701 15.441c0.080 0 0.077-0.069 0.077-0.124 0.001-0.25 0.001-0.501 0.001-0.751 0-0.266 0.001-0.533-0.001-0.799 0-0.056 0.004-0.125-0.077-0.125s-0.077 0.069-0.077 0.124c-0.001 0.517-0.001 1.033 0 1.549 0 0.056-0.004 0.124 0.077 0.125z"></path>
<path d="M14.872 13.643c-0.099-0.001-0.080 0.085-0.081 0.144-0.003 0.25-0.001 0.501-0.001 0.751 0 0.258-0.001 0.517 0.001 0.775 0 0.055-0.007 0.124 0.073 0.128 0.083 0.004 0.080-0.065 0.080-0.12 0.001-0.517 0.001-1.033 0-1.55 0-0.055 0.007-0.127-0.073-0.127z"></path>
<path d="M19.69 15.469c0.086-0.003 0.095-0.074 0.095-0.142 0.001-0.526 0.001-1.051 0-1.577 0-0.069-0.016-0.136-0.103-0.136-0.1 0-0.082 0.082-0.082 0.143-0.002 0.259-0.001 0.518-0.001 0.776s-0.002 0.518 0.001 0.776c0.001 0.065-0.029 0.163 0.089 0.159z"></path>
<path d="M12.294 12.868c0.082 0 0.072-0.072 0.072-0.126 0.002-0.265 0.001-0.531 0.001-0.796s0.001-0.531-0.001-0.796c0-0.047 0.004-0.104-0.062-0.111-0.083-0.009-0.087 0.055-0.087 0.112-0.001 0.531-0.001 1.063 0 1.593 0 0.056-0.004 0.125 0.076 0.125z"></path>
<path d="M14.639 13.792c0-0.079 0.010-0.18-0.107-0.177-0.111 0.002-0.082 0.102-0.082 0.167-0.002 0.507-0.002 1.015 0 1.522 0 0.066-0.028 0.165 0.085 0.165 0.118 0 0.104-0.101 0.105-0.179 0.002-0.249 0.001-0.499 0.001-0.749s0.001-0.499-0.001-0.749z"></path>
<path d="M12.216 14.529c0 0.258-0.002 0.515 0.001 0.773 0.001 0.059-0.020 0.144 0.080 0.142 0.082-0.002 0.069-0.076 0.069-0.128 0.002-0.515 0.002-1.030 0-1.544 0-0.052 0.015-0.126-0.067-0.13-0.101-0.005-0.082 0.081-0.083 0.14-0.003 0.249-0.001 0.499-0.001 0.748z"></path>
<path d="M11.878 12.745c0 0.056-0.003 0.124 0.078 0.122s0.075-0.071 0.075-0.126c0.002-0.258 0.001-0.516 0.001-0.774 0-0.266 0.001-0.532-0.001-0.798 0-0.054 0.013-0.125-0.067-0.132-0.102-0.008-0.087 0.075-0.088 0.136-0.001 0.524-0.001 1.048 0 1.572z"></path>
<path d="M14.194 13.615c-0.114 0.006-0.077 0.105-0.078 0.169-0.004 0.25-0.002 0.502-0.002 0.752 0 0.259-0.002 0.518 0.001 0.776 0.001 0.066-0.026 0.163 0.092 0.155 0.086-0.006 0.092-0.078 0.092-0.145 0.001-0.518 0.001-1.035 0-1.553 0-0.075-0.004-0.161-0.105-0.155z"></path>
<path d="M20.013 15.469c0.101 0.008 0.112-0.072 0.112-0.15 0.001-0.259 0-0.518 0-0.776s0-0.518 0-0.776c0-0.076-0.008-0.157-0.109-0.152-0.097 0.005-0.075 0.090-0.075 0.15-0.002 0.518-0.002 1.035 0 1.553 0 0.060-0.022 0.145 0.072 0.152z"></path>
<path d="M10.598 12.896c0.085 0.006 0.107-0.058 0.107-0.129 0.001-0.533 0.001-1.065 0-1.597 0-0.067-0.012-0.136-0.101-0.136-0.102 0-0.082 0.081-0.083 0.141-0.002 0.258-0.001 0.517-0.001 0.775 0 0.266-0.001 0.533 0.001 0.799 0.001 0.059-0.022 0.142 0.076 0.149z"></path>
<path d="M10.934 12.896c0.101 0.007 0.112-0.072 0.112-0.15 0-0.525 0.001-1.050-0.001-1.576 0-0.067-0.011-0.136-0.1-0.137-0.099-0.002-0.088 0.075-0.088 0.137-0.002 0.259-0.001 0.518-0.001 0.776 0 0.266-0.001 0.534 0.001 0.8 0 0.061-0.017 0.144 0.077 0.15z"></path>
<path d="M11.538 12.745c0 0.056-0.003 0.124 0.079 0.122 0.080-0.002 0.074-0.072 0.075-0.126 0.002-0.266 0.001-0.532 0.001-0.798 0-0.258 0.001-0.516-0.001-0.774 0-0.053 0.013-0.125-0.068-0.132-0.101-0.008-0.087 0.075-0.087 0.136-0.002 0.524-0.001 1.048 0 1.572z"></path>
<path d="M11.272 12.867c0.098 0.004 0.079-0.085 0.080-0.144 0.003-0.258 0.001-0.516 0.001-0.774s0.001-0.516-0.001-0.774c0-0.060 0.015-0.144-0.086-0.137-0.080 0.006-0.069 0.077-0.069 0.131-0.001 0.516-0.002 1.032 0 1.547 0 0.059-0.020 0.146 0.074 0.15z"></path>
<path d="M13.048 19.887c-0.006-0.352-0.289-0.621-0.644-0.611-0.341 0.009-0.603 0.285-0.6 0.632 0.003 0.337 0.285 0.616 0.621 0.613 0.356-0.003 0.628-0.279 0.623-0.633zM12.438 20.344c-0.247 0.005-0.448-0.184-0.457-0.43-0.009-0.239 0.166-0.443 0.401-0.456 0.084-0.005 0.2-0.045 0.14 0.137-0.048 0.144 0.057 0.256 0.199 0.2 0.166-0.065 0.146 0.023 0.15 0.12-0.006 0.236-0.195 0.424-0.432 0.429z"></path>
</symbol>
<symbol id="redux" viewBox="0 0 32 32">
<path d="M21.787 21.556c1.107-0.113 1.947-1.051 1.909-2.177s-0.993-2.027-2.138-2.027h-0.076c-1.184 0.038-2.1 1.013-2.061 2.177 0.038 0.563 0.267 1.051 0.611 1.389-1.298 2.515-3.283 4.354-6.261 5.893-2.023 1.051-4.123 1.426-6.223 1.164-1.718-0.225-3.054-0.976-3.894-2.215-1.222-1.839-1.336-3.828-0.305-5.818 0.725-1.426 1.871-2.477 2.596-3.003-0.153-0.488-0.382-1.314-0.496-1.914-5.536 3.941-4.963 9.271-3.283 11.785 1.26 1.877 3.818 3.040 6.643 3.040 0.763 0 1.527-0.075 2.291-0.263 4.887-0.938 8.59-3.791 10.689-8.032zM28.506 16.902c-2.901-3.341-7.177-5.18-12.064-5.18h-0.611c-0.344-0.676-1.069-1.126-1.871-1.126h-0.076c-1.183 0.038-2.099 1.013-2.061 2.177 0.038 1.126 0.992 2.027 2.138 2.027h0.076c0.84-0.037 1.565-0.563 1.871-1.276h0.687c2.901 0 5.65 0.826 8.132 2.44 1.909 1.239 3.283 2.853 4.047 4.804 0.649 1.576 0.611 3.115-0.076 4.429-1.069 1.989-2.863 3.078-5.23 3.078-1.527 0-2.978-0.45-3.741-0.788-0.42 0.375-1.183 0.976-1.718 1.351 1.642 0.751 3.321 1.163 4.925 1.163 3.665 0 6.375-1.989 7.406-3.979 1.107-2.177 1.031-5.93-1.832-9.121zM9.112 22.194c0.038 1.126 0.993 2.027 2.138 2.027h0.076c1.183-0.037 2.1-1.013 2.061-2.177-0.038-1.126-0.993-2.027-2.138-2.027h-0.076c-0.076 0-0.191 0-0.267 0.037-1.565-2.552-2.214-5.33-1.985-8.332 0.153-2.252 0.916-4.204 2.252-5.818 1.107-1.389 3.245-2.064 4.696-2.102 4.047-0.075 5.764 4.879 5.879 6.869 0.496 0.113 1.336 0.375 1.909 0.563-0.458-6.080-4.276-9.233-7.941-9.233-3.436 0-6.605 2.44-7.864 6.043-1.756 4.804-0.611 9.421 1.527 13.062-0.191 0.263-0.305 0.676-0.267 1.088v-0z"></path>
</symbol>
<symbol id="css3" viewBox="0 0 32 32">
<path d="M2.4 0l2.55 28.889 11.050 3.111 11.050-3.111 2.551-28.889h-27.2zM24.123 9.363l-8.153 3.645h7.866l-0.9 10.819-6.934 2.117-0.012-0.004v0.004l-6.972-2.156-0.45-5.448h3.461l0.225 2.822 3.704 0.978 0.032-0.009v0.004l3.835-1.13 0.263-4.547-11.745-0.040-0.262-3.41 8.37-3.645h-8.67l-0.413-3.489h17.092l-0.338 3.489z"></path>
</symbol>
<symbol id="js" viewBox="0 0 32 32">
<path d="M0.384 0.67v31.296h31.296v-31.296h-31.296zM16.718 27.442c-0.461 0.937-1.342 1.553-2.362 1.85-1.568 0.36-3.067 0.155-4.183-0.515-0.747-0.458-1.33-1.163-1.725-1.975 0.794-0.485 1.586-0.973 2.38-1.458 0.021 0.009 0.083 0.122 0.167 0.268 0.303 0.509 0.565 0.869 1.080 1.121 0.506 0.172 1.615 0.283 2.044-0.607 0.262-0.452 0.178-1.936 0.178-3.545 0-2.529 0.012-5.016 0.012-7.576h2.927c0 2.688 0.015 5.383 0 8.067 0.006 1.645 0.149 3.14-0.518 4.369zM28.862 26.615c-1.017 3.481-6.691 3.594-8.957 1.294-0.479-0.541-0.779-0.824-1.065-1.449 1.205-0.693 1.205-0.693 2.377-1.371 0.637 0.979 1.226 1.517 2.285 1.737 1.437 0.175 2.883-0.318 2.559-1.844-0.333-1.247-2.942-1.55-4.718-2.883-1.803-1.211-2.225-4.153-0.744-5.834 0.494-0.622 1.336-1.086 2.219-1.309 0.306-0.039 0.616-0.080 0.922-0.119 1.77-0.036 2.877 0.431 3.689 1.339 0.226 0.229 0.41 0.476 0.756 1.012-0.943 0.601-0.94 0.595-2.291 1.47-0.289-0.622-0.767-1.012-1.273-1.181-0.785-0.238-1.776 0.021-1.981 0.851-0.071 0.256-0.056 0.494 0.057 0.916 0.318 0.726 1.386 1.041 2.344 1.481 2.758 1.119 3.689 2.317 3.918 3.745 0.22 1.229-0.054 2.026-0.095 2.145z"></path>
</symbol>
<symbol id="react" viewBox="0 0 32 32">
<path d="M18.178 15.988c0 1.243-1.008 2.251-2.251 2.251s-2.251-1.008-2.251-2.251c0-1.243 1.008-2.251 2.251-2.251s2.251 1.008 2.251 2.251z"></path>
<path d="M15.927 24.266c1.768 1.719 3.51 2.735 4.914 2.735 0.46 0 0.896-0.097 1.258-0.314 1.258-0.727 1.719-2.542 1.283-5.132-0.072-0.46-0.169-0.92-0.291-1.404 0.484-0.145 0.92-0.291 1.355-0.436 2.445-0.944 3.8-2.251 3.8-3.679 0-1.452-1.355-2.76-3.8-3.679-0.436-0.169-0.872-0.314-1.355-0.436 0.121-0.484 0.218-0.944 0.291-1.404 0.411-2.638-0.048-4.478-1.307-5.205-0.363-0.217-0.799-0.314-1.258-0.314-1.38 0-3.147 1.016-4.914 2.735-1.743-1.719-3.486-2.735-4.889-2.735-0.46 0-0.896 0.097-1.258 0.314-1.258 0.727-1.719 2.542-1.283 5.132 0.072 0.46 0.169 0.92 0.291 1.404-0.484 0.145-0.92 0.291-1.355 0.436-2.445 0.944-3.8 2.251-3.8 3.679 0 1.452 1.355 2.76 3.8 3.679 0.436 0.169 0.872 0.314 1.355 0.436-0.121 0.484-0.218 0.944-0.291 1.404-0.411 2.59 0.048 4.43 1.283 5.132 0.363 0.218 0.799 0.314 1.258 0.314 1.404 0.048 3.147-0.968 4.914-2.663v0zM14.57 20.999c0.436 0.024 0.896 0.024 1.355 0.024s0.92 0 1.355-0.024c-0.436 0.581-0.896 1.113-1.355 1.622-0.46-0.508-0.92-1.041-1.355-1.622zM11.569 18.505c0.242 0.411 0.46 0.799 0.727 1.186-0.75-0.097-1.452-0.218-2.13-0.363 0.218-0.653 0.46-1.332 0.75-2.009 0.194 0.387 0.411 0.799 0.653 1.186zM10.165 12.671c0.678-0.145 1.38-0.266 2.13-0.363-0.242 0.388-0.484 0.775-0.727 1.186s-0.46 0.799-0.653 1.21c-0.314-0.702-0.557-1.38-0.75-2.034zM11.496 15.988c0.314-0.653 0.653-1.307 1.041-1.96 0.363-0.63 0.775-1.258 1.186-1.888 0.727-0.048 1.452-0.072 2.203-0.072 0.775 0 1.501 0.024 2.203 0.072 0.436 0.63 0.823 1.258 1.186 1.888 0.388 0.653 0.727 1.307 1.041 1.96-0.314 0.653-0.653 1.307-1.041 1.96-0.363 0.63-0.775 1.258-1.186 1.888-0.727 0.048-1.452 0.072-2.203 0.072-0.775 0-1.501-0.024-2.203-0.072-0.436-0.63-0.823-1.258-1.186-1.888-0.388-0.654-0.727-1.307-1.041-1.96v0zM20.962 14.68l-0.653-1.21c-0.242-0.411-0.46-0.799-0.727-1.186 0.75 0.097 1.452 0.218 2.13 0.363-0.217 0.678-0.46 1.355-0.75 2.034v0zM20.962 17.295c0.291 0.678 0.533 1.355 0.75 2.009-0.678 0.145-1.38 0.266-2.13 0.363 0.242-0.388 0.484-0.775 0.727-1.186 0.218-0.363 0.436-0.775 0.653-1.186v0zM21.518 25.695c-0.194 0.121-0.436 0.169-0.702 0.169-1.186 0-2.663-0.968-4.115-2.421 0.702-0.75 1.38-1.598 2.057-2.542 1.138-0.097 2.227-0.266 3.244-0.508 0.121 0.436 0.194 0.872 0.266 1.307 0.339 2.057 0.072 3.534-0.75 3.994zM22.777 12.937c2.712 0.775 4.333 1.96 4.333 3.050 0 0.944-1.113 1.888-3.074 2.639-0.388 0.145-0.823 0.291-1.258 0.411-0.314-0.993-0.702-2.009-1.186-3.050 0.484-1.041 0.896-2.057 1.186-3.050v0zM20.84 6.111c0.266 0 0.484 0.048 0.702 0.169 0.799 0.46 1.089 1.912 0.75 3.994-0.072 0.411-0.169 0.847-0.266 1.307-1.016-0.218-2.106-0.388-3.244-0.508-0.653-0.944-1.355-1.791-2.057-2.542 1.452-1.429 2.929-2.421 4.115-2.421zM17.282 10.977c-0.436-0.024-0.896-0.024-1.355-0.024s-0.92 0-1.355 0.024c0.436-0.581 0.896-1.113 1.355-1.622 0.46 0.508 0.92 1.065 1.355 1.622v0zM10.334 6.28c0.194-0.121 0.436-0.169 0.702-0.169 1.186 0 2.663 0.968 4.115 2.421-0.702 0.75-1.38 1.597-2.057 2.542-1.138 0.097-2.227 0.266-3.244 0.508-0.121-0.436-0.194-0.872-0.266-1.307-0.339-2.057-0.072-3.51 0.75-3.994v0zM9.076 19.038c-2.712-0.775-4.333-1.96-4.333-3.050 0-0.944 1.113-1.888 3.074-2.638 0.388-0.145 0.823-0.291 1.258-0.411 0.314 0.993 0.702 2.009 1.186 3.050-0.484 1.041-0.896 2.082-1.186 3.050zM9.584 21.701c0.072-0.411 0.169-0.847 0.266-1.307 1.016 0.218 2.106 0.388 3.244 0.508 0.653 0.944 1.355 1.791 2.057 2.542-1.452 1.428-2.929 2.421-4.115 2.421-0.266 0-0.484-0.048-0.702-0.169-0.824-0.46-1.089-1.937-0.75-3.994z"></path>
</symbol>
<symbol id="html5" viewBox="0 0 32 32">
<path d="M4 2l2.181 24.738 9.788 3.262 9.85-3.262 2.181-24.738zM23.262 9.994h-11.488l0.256 3.088h10.975l-0.85 9.275-6.119 1.688v0.019h-0.069l-6.169-1.706-0.375-4.738h2.981l0.219 2.381 3.344 0.906 3.356-0.906 0.375-3.887h-10.431l-0.8-9.1h15.069z"></path>
</symbol>
<symbol id="vercel" viewBox="0 0 32 32">
<path d="M16 2.133l14.72 25.6h-29.44l14.72-25.6zM16 6.413l-11.033 19.187h22.065l-11.032-19.187z"></path>
</symbol>

<symbol id="download" viewBox="0 0 32 32">
<path d="M17.333 19.448l5.724-5.724c0.521-0.521 1.365-0.521 1.886 0s0.521 1.365 0 1.886l-8 8c-0.521 0.521-1.365 0.521-1.886 0l-8-8c-0.521-0.521-0.521-1.365 0-1.886s1.365-0.521 1.886 0l5.724 5.724v-18.114c0-0.736 0.597-1.333 1.333-1.333s1.333 0.597 1.333 1.333v18.114zM2.667 29.389h26.667v-6.722c0-0.736 0.597-1.333 1.333-1.333s1.333 0.597 1.333 1.333v8.055c0 0.736-0.597 1.333-1.333 1.333h-29.333c-0.736 0-1.333-0.597-1.333-1.333v-7.973c0-0.736 0.597-1.333 1.333-1.333s1.333 0.597 1.333 1.333v6.639z"></path>
</symbol>
<symbol id="burger" viewBox="0 0 32 32">
<path fill="#647f94" style="fill: var(--color1, #647f94)" d="M30.141 4.27h-28.080c-0.811 0-1.468-0.657-1.468-1.468s0.657-1.468 1.468-1.468h28.080c0.811 0 1.468 0.657 1.468 1.468s-0.657 1.468-1.468 1.468z"></path>
<path fill="#647f94" style="fill: var(--color1, #647f94)" d="M30.141 17.532h-28.080c-0.811 0-1.468-0.657-1.468-1.468s0.657-1.468 1.468-1.468h28.080c0.811 0 1.468 0.657 1.468 1.468s-0.657 1.468-1.468 1.468z"></path>
<path fill="#647f94" style="fill: var(--color1, #647f94)" d="M30.141 30.794h-28.080c-0.811 0-1.468-0.657-1.468-1.468s0.657-1.468 1.468-1.468h28.080c0.811 0 1.468 0.657 1.468 1.468s-0.657 1.468-1.468 1.468z"></path>
</symbol>
<symbol id="githubc" viewBox="0 0 32 32">
<path fill="#3e77bf" style="fill: var(--color1, #3e77bf)" d="M15.999 0.333c-8.835 0-15.999 7.191-15.999 16.065 0 7.096 4.584 13.117 10.944 15.241 0.799 0.148 1.091-0.348 1.091-0.774 0-0.381-0.014-1.391-0.022-2.732-4.452 0.972-5.39-2.153-5.39-2.153-0.727-1.856-1.775-2.349-1.775-2.349-1.453-0.997 0.109-0.978 0.109-0.978 1.605 0.113 2.45 1.656 2.45 1.656 1.429 2.455 3.746 1.745 4.658 1.334 0.144-1.037 0.558-1.746 1.015-2.147-3.552-0.406-7.287-1.783-7.287-7.938 0-1.753 0.623-3.188 1.646-4.312-0.166-0.406-0.714-2.039 0.156-4.25 0 0 1.344-0.431 4.4 1.646 1.276-0.356 2.645-0.534 4.006-0.541 1.358 0.007 2.728 0.185 4.006 0.541 3.053-2.078 4.395-1.646 4.395-1.646 0.872 2.211 0.324 3.844 0.158 4.25 1.026 1.124 1.645 2.558 1.645 4.312 0 6.17-3.741 7.528-7.305 7.926 0.574 0.496 1.086 1.476 1.086 2.975 0 2.148-0.019 3.879-0.019 4.406 0 0.43 0.289 0.931 1.1 0.772 6.352-2.128 10.932-8.145 10.932-15.239 0-8.873-7.164-16.065-16.001-16.065z"></path>
<path fill="#114c82" style="fill: var(--color2, #114c82)" d="M24.419 7.041c0.847 2.187 0.307 3.802 0.142 4.205 1.026 1.124 1.645 2.558 1.645 4.312 0 6.17-3.741 7.528-7.305 7.926 0.574 0.496 1.086 1.476 1.086 2.975 0 2.148-0.019 3.879-0.019 4.406 0 0.43 0.289 0.931 1.1 0.772 6.353-2.128 10.932-8.145 10.932-15.239 0-1.907-0.332-3.735-0.94-5.432-2.206-2.323-4.661-3.869-6.641-3.925z"></path>
<path fill="#114c82" style="fill: var(--color2, #114c82)" d="M12.45 24.343c0.18-0.362 0.399-0.644 0.63-0.848-1.947-0.223-3.946-0.743-5.358-2.177 1.086 1.807 2.854 2.63 4.728 3.025z"></path>
<path fill="#6ca9ea" style="fill: var(--color3, #6ca9ea)" d="M0.833 17.48c0-8.873 7.164-16.065 15.999-16.065 4.906 0 9.294 2.219 12.228 5.709-2.898-4.108-7.666-6.792-13.061-6.792-8.835 0-15.999 7.191-15.999 16.065 0 3.956 1.427 7.576 3.79 10.374-1.859-2.623-2.957-5.827-2.957-9.291z"></path>
<path fill="#083e66" style="fill: var(--color4, #083e66)" d="M20.82 27.542c0-1.499-0.511-2.48-1.086-2.976 3.564-0.397 7.306-1.756 7.306-7.926 0-1.754-0.619-3.187-1.646-4.311 0.166-0.406 0.716-2.039-0.158-4.25 0 0-0.166-0.051-0.509-0.031 0.375 1.667-0.027 2.859-0.165 3.198 1.026 1.124 1.645 2.558 1.645 4.312 0 6.17-3.741 7.528-7.305 7.926 0.574 0.496 1.086 1.476 1.086 2.975 0 2.148-0.019 3.879-0.019 4.406 0 0.379 0.226 0.811 0.834 0.801 0.004-0.726 0.019-2.268 0.019-4.123z"></path>
<path fill="#114c82" style="fill: var(--color2, #114c82)" d="M7.578 27.355c0.336 0.692 1.465 2.348 4.444 1.999-0.004-0.364-0.007-0.773-0.009-1.221-2.298 0.502-3.655-0.090-4.435-0.778z"></path>
<path fill="#6ca9ea" style="fill: var(--color3, #6ca9ea)" d="M8.153 25.251c-0.103-0.155-0.295-0.418-0.574-0.68 0.181 0.269 0.374 0.494 0.574 0.68z"></path>
</symbol>
<symbol id="telegram" viewBox="0 0 32 32">
<path fill="#7aa5da" style="fill: var(--color5, #7aa5da)" d="M32 16c0 8.837-7.163 16-16 16s-16-7.163-16-16c0-8.837 7.163-16 16-16s16 7.163 16 16z"></path>
<path fill="#5786b5" style="fill: var(--color6, #5786b5)" d="M31.995 15.63l-7.103-7.091-11.569 14.102 8.33 8.33c6.046-2.284 10.346-8.125 10.346-14.971 0-0.124-0.002-0.247-0.005-0.37z"></path>
<path fill="#fff" style="fill: var(--color7, #fff)" d="M23.982 8.345c0.638-0.249 1.297 0.309 1.157 0.979l-2.861 13.674c-0.134 0.641-0.887 0.93-1.415 0.542l-4.318-3.17-2.201 2.248c-0.387 0.394-1.054 0.234-1.22-0.292l-1.588-5.041-4.257-1.257c-0.559-0.165-0.591-0.943-0.050-1.155l16.752-6.527zM21.882 11.379c0.186-0.165-0.030-0.456-0.241-0.324l-9.188 5.699c-0.162 0.1-0.236 0.297-0.179 0.479l1.253 5.503c0.025 0.084 0.145 0.072 0.156-0.015l0.28-4.193c0.011-0.103 0.060-0.198 0.138-0.267l7.781-6.881z"></path>
<path fill="#9ec2e5" style="fill: var(--color8, #9ec2e5)" d="M21.641 11.055c0.211-0.131 0.428 0.159 0.241 0.324l-7.781 6.881c-0.078 0.069-0.127 0.164-0.138 0.267l-0.28 4.193c-0.011 0.087-0.131 0.099-0.156 0.015l-1.253-5.503c-0.057-0.182 0.017-0.379 0.179-0.479l9.188-5.699z"></path>
<path fill="#fff" style="fill: var(--color7, #fff)" d="M13.572 22.792c-0.203-0.072-0.374-0.234-0.447-0.467l-1.588-5.041-4.257-1.257c-0.559-0.165-0.591-0.943-0.050-1.155l16.752-6.527c0.412-0.161 0.833 0.015 1.041 0.341-0.039-0.059-0.085-0.114-0.137-0.163l-11.365 9.278v0.406l-0.063-0.045 0.063 2.558v2.051c0.016 0.008 0.033 0.014 0.051 0.019v0.002h0z"></path>
<path fill="#d1d1d1" style="fill: var(--color9, #d1d1d1)" d="M25.158 9.095c0.003 0.073-0.002 0.151-0.018 0.229l-2.861 13.674c-0.134 0.641-0.887 0.93-1.415 0.542l-4.318-3.17-3.024-2.163v-0.406l11.365-9.278c0.052 0.049 0.098 0.103 0.137 0.163 0.008 0.013 0.015 0.025 0.023 0.037 0.006 0.013 0.014 0.026 0.020 0.038 0.006 0.013 0.013 0.026 0.018 0.039 0.006 0.014 0.012 0.027 0.017 0.041 0.004 0.012 0.010 0.025 0.014 0.039 0.014 0.042 0.025 0.085 0.032 0.13 0.004 0.028 0.008 0.056 0.010 0.086z"></path>
<path fill="#d1d1d1" style="fill: var(--color9, #d1d1d1)" d="M16.546 20.37l-2.201 2.248c-0.018 0.018-0.038 0.037-0.057 0.053s-0.039 0.030-0.059 0.044c-0.001 0.001-0.001 0.001-0.001 0.001-0.041 0.027-0.083 0.050-0.127 0.068-0.023 0.009-0.044 0.017-0.067 0.023-0.094 0.028-0.19 0.036-0.284 0.026-0.025-0.002-0.050-0.006-0.073-0.011-0.003 0-0.006-0.001-0.010-0.002-0.024-0.006-0.047-0.013-0.071-0.020-0.008-0.002-0.015-0.004-0.023-0.009l-0.051-2.071v-2.513l3.024 2.163z"></path>
<path fill="#dadde0" style="fill: var(--color10, #dadde0)" d="M14.287 22.671c-0.019 0.016-0.039 0.031-0.059 0.045v-0.001c0.021-0.014 0.040-0.028 0.059-0.044z"></path>
<path fill="#dadde0" style="fill: var(--color10, #dadde0)" d="M14.228 22.715v0.001c0 0 0-0.001-0.001 0 0 0 0 0 0.001-0.001z"></path>
<path fill="#dadde0" style="fill: var(--color10, #dadde0)" d="M14.1 22.784c0.044-0.018 0.086-0.041 0.127-0.068-0.041 0.027-0.084 0.049-0.127 0.068z"></path>
<path fill="#dadde0" style="fill: var(--color10, #dadde0)" d="M13.749 22.832c0.095 0.010 0.191 0.002 0.284-0.026-0.068 0.022-0.138 0.031-0.208 0.031-0.022 0-0.043-0.001-0.064-0.003-0.004 0-0.009 0-0.013-0.002z"></path>
<path fill="#fff" style="fill: var(--color7, #fff)" d="M13.825 22.838c-0.022 0-0.043-0.001-0.064-0.003 0.020 0.002 0.042 0.003 0.064 0.003z"></path>
<path fill="#fff" style="fill: var(--color7, #fff)" d="M13.749 22.832c0.004 0.002 0.009 0.002 0.013 0.002-0.023-0.001-0.043-0.004-0.065-0.009 0.017 0.003 0.034 0.005 0.052 0.006z"></path>
<path fill="#dadde0" style="fill: var(--color10, #dadde0)" d="M13.749 22.832c-0.017-0.001-0.034-0.003-0.052-0.006-0.008-0.001-0.015-0.002-0.022-0.004 0.024 0.004 0.048 0.009 0.073 0.011z"></path>
<path fill="#dadde0" style="fill: var(--color10, #dadde0)" d="M13.595 22.799c0.024 0.008 0.047 0.014 0.071 0.020-0.010-0.002-0.019-0.004-0.029-0.006-0.004-0.001-0.009-0.002-0.012-0.004-0.010-0.002-0.021-0.005-0.030-0.010z"></path>
<path fill="#fff" style="fill: var(--color7, #fff)" d="M13.637 22.813c0.010 0.002 0.019 0.004 0.029 0.006-0.010-0.001-0.019-0.003-0.029-0.006z"></path>
<path fill="#fff" style="fill: var(--color7, #fff)" d="M13.595 22.799c0.010 0.004 0.021 0.008 0.030 0.010-0.016-0.003-0.032-0.009-0.049-0.015 0.006 0.002 0.012 0.004 0.018 0.005z"></path>
<path fill="#dadde0" style="fill: var(--color10, #dadde0)" d="M13.595 22.799c-0.006-0.001-0.012-0.003-0.018-0.005-0.001 0.001-0.003 0-0.004-0.001v-0.002c0.008 0.004 0.015 0.006 0.023 0.009z"></path>
<path fill="#d1d1d1" style="fill: var(--color9, #d1d1d1)" d="M13.521 20.719l0.051 2.071c-0.017-0.005-0.034-0.012-0.051-0.019v-2.051z"></path>
<path fill="#dadde0" style="fill: var(--color10, #dadde0)" d="M13.521 18.207v2.513l-0.063-2.558z"></path>
<path fill="#adbcc9" style="fill: var(--color11, #adbcc9)" d="M21.882 11.379l-7.781 6.881c-0.078 0.069-0.127 0.164-0.138 0.267l-0.28 4.194c-0.011 0.087-0.131 0.099-0.157 0.015l-1.252-5.503c-0.057-0.182 0.017-0.379 0.179-0.479l9.188-5.699c0.211-0.132 0.428 0.159 0.241 0.324z"></path>
</symbol>
<symbol id="linkedin" viewBox="0 0 32 32">
<path fill="#4a86c5" style="fill: var(--color12, #4a86c5)" d="M32 16c0 8.837-7.163 16-16 16s-16-7.163-16-16c0-8.837 7.163-16 16-16s16 7.163 16 16z"></path>
<path fill="#3d80b2" style="fill: var(--color13, #3d80b2)" d="M27.313 4.685c6.248 6.249 6.249 16.38 0 22.629s-16.38 6.248-22.628 0l22.628-22.629z"></path>
<path fill="#4a86c5" style="fill: var(--color12, #4a86c5)" d="M31.238 20.882c0.059-0.183 0.112-0.368 0.164-0.554-0.052 0.186-0.107 0.371-0.164 0.554z"></path>
<path fill="#377ca5" style="fill: var(--color14, #377ca5)" d="M31.404 20.325v0l-0.001 0.004z"></path>
<path fill="#377ca5" style="fill: var(--color14, #377ca5)" d="M31.404 20.325l-8.668-8.668-1.972 1.972-1.371-1.371-1.144 1.144-6.7-6.701-0.416-0.158-2.571 2.571 3.104 3.104-3.038 3.038 2.967 2.967-3.244 3.244 10.318 10.307c5.941-0.998 10.77-5.266 12.571-10.892 0.057-0.183 0.112-0.368 0.164-0.554 0-0.001 0.001-0.003 0.001-0.004z"></path>
<path fill="#fff" style="fill: var(--color7, #fff)" d="M24.21 15.561v5.934h-3.44v-5.536c0-1.391-0.498-2.34-1.743-2.34-0.951 0-1.516 0.64-1.765 1.258-0.091 0.221-0.114 0.529-0.114 0.839v5.779h-3.441c0 0 0.046-9.377 0-10.348h3.44v1.467c-0.006 0.011-0.016 0.023-0.022 0.034h0.022v-0.034c0.457-0.704 1.274-1.71 3.101-1.71 2.264 0 3.961 1.479 3.961 4.658zM10.108 6.158c-1.177 0-1.947 0.772-1.947 1.787 0 0.994 0.748 1.789 1.902 1.789h0.023c1.2 0 1.946-0.795 1.946-1.789-0.023-1.015-0.746-1.787-1.924-1.787zM8.365 21.494h3.44v-10.348h-3.44v10.348z"></path>
</symbol>
</defs>
</svg>
